<?xml version="1.0" standalone="no"?>
<!DOCTYPE svg PUBLIC "-//W3C//DTD SVG 20010904//EN"
 "http://www.w3.org/TR/2001/REC-SVG-20010904/DTD/svg10.dtd">
<svg version="1.0" xmlns="http://www.w3.org/2000/svg"
 width="1237.000000pt" height="1237.000000pt" viewBox="0 0 1237.000000 1237.000000"
 preserveAspectRatio="xMidYMid meet">
<metadata>
Created by potrace 1.11, written by Peter Selinger 2001-2013
</metadata>
<g transform="translate(0.000000,1237.000000) scale(0.100000,-0.100000)"
fill="#000000" stroke="none">
<path d="M7600 12121 c-56 -64 -166 -187 -171 -191 -3 -3 -68 -75 -144 -160
-77 -85 -142 -157 -145 -160 -3 -3 -39 -43 -80 -89 -41 -47 -86 -96 -100 -111
-14 -15 -43 -47 -65 -71 -80 -89 -221 -245 -255 -283 -19 -21 -41 -45 -49 -53
-11 -12 -8 -25 23 -89 113 -228 353 -457 823 -786 34 -23 96 -67 137 -96 l76
-53 57 37 c184 117 341 267 663 634 134 152 253 276 355 369 l59 53 -71 67
c-39 36 -117 109 -174 161 -56 52 -112 104 -124 115 -11 11 -74 69 -140 130
-66 60 -129 119 -140 130 -12 11 -46 43 -76 70 -92 85 -289 267 -358 332 -36
34 -70 62 -76 62 -5 0 -17 -8 -25 -18z"/>
<path d="M5450 11252 c-44 -36 -58 -209 -30 -384 6 -40 13 -84 15 -98 35 -244
187 -695 306 -905 51 -90 157 -242 239 -341 14 -17 43 -52 65 -79 98 -119 259
-284 378 -388 297 -258 637 -436 992 -520 120 -29 146 -34 270 -51 209 -30
574 -25 825 10 19 3 67 9 105 14 39 6 93 14 120 20 28 5 61 11 75 14 47 7 225
47 305 67 44 12 89 23 99 25 10 2 60 15 110 30 50 14 96 27 101 29 11 2 28 9
141 56 118 49 378 180 524 263 119 69 403 252 469 303 159 123 277 239 309
303 20 41 20 42 1 97 -62 180 -193 372 -472 690 -156 178 -208 241 -284 345
l-64 88 -52 -26 c-50 -26 -205 -127 -258 -169 -14 -11 -40 -31 -59 -45 -18
-14 -42 -33 -54 -44 -11 -10 -64 -50 -116 -89 -52 -40 -97 -74 -100 -77 -3 -3
-66 -46 -140 -96 -356 -240 -698 -399 -1035 -479 -55 -14 -113 -26 -130 -29
-169 -27 -223 -31 -395 -31 -257 1 -453 32 -685 111 -238 80 -363 149 -620
340 -389 289 -743 692 -893 1017 -25 52 -30 55 -62 29z"/>
<path d="M4297 9764 c-1 -1 -56 -4 -122 -8 -66 -3 -133 -8 -150 -10 -16 -2
-61 -7 -100 -11 -38 -4 -79 -9 -90 -11 -11 -2 -49 -9 -85 -15 -63 -10 -81 -13
-145 -24 -63 -12 -292 -66 -345 -81 -428 -126 -728 -248 -1026 -420 -175 -100
-283 -176 -626 -440 l-67 -51 206 -344 c113 -189 211 -353 217 -364 19 -32 76
-129 86 -145 6 -8 79 -131 163 -272 93 -155 157 -254 163 -249 11 11 457 235
629 316 537 254 1051 423 1370 451 423 38 689 -66 924 -361 31 -38 59 -71 64
-73 4 -2 7 -8 7 -14 0 -5 11 -24 24 -41 37 -50 72 -127 86 -188 25 -112 -13
-221 -140 -400 -133 -189 -289 -316 -502 -410 -96 -42 -259 -94 -330 -104 -23
-4 -45 -8 -48 -10 -4 -2 -29 -7 -56 -10 -27 -4 -56 -8 -64 -10 -69 -18 -471
-25 -635 -12 -106 9 -190 16 -245 22 -25 3 -74 7 -110 10 -36 3 -83 7 -105 10
-119 12 -215 16 -215 9 0 -18 30 -163 58 -284 98 -413 266 -819 488 -1180 51
-84 153 -230 194 -280 11 -14 31 -38 44 -53 l23 -29 94 11 c179 21 205 22 404
25 201 3 300 -3 460 -29 72 -12 252 -68 323 -102 136 -63 281 -183 369 -304
141 -192 242 -515 248 -789 4 -187 -22 -350 -81 -508 -136 -360 -414 -634
-804 -793 -83 -33 -257 -85 -350 -103 -14 -2 -47 -9 -75 -15 -27 -5 -77 -13
-110 -16 -33 -4 -69 -9 -80 -11 -109 -21 -571 -21 -720 1 -16 2 -57 7 -90 10
-33 3 -69 8 -81 10 -12 3 -39 7 -60 10 -21 3 -59 10 -84 15 -25 5 -56 12 -70
14 -14 2 -47 10 -75 16 -27 6 -57 13 -65 15 -188 41 -466 142 -660 241 -102
51 -278 157 -325 196 -5 5 -21 18 -35 29 -153 125 -335 338 -445 521 -144 239
-257 453 -340 643 -26 61 -56 129 -67 153 -87 196 -217 581 -309 912 -107 385
-230 717 -273 733 -36 14 -70 -81 -83 -231 -14 -175 -4 -578 22 -832 11 -104
16 -157 20 -185 2 -16 7 -57 10 -90 6 -52 67 -423 79 -480 29 -137 102 -403
153 -560 111 -343 282 -729 439 -988 30 -49 54 -92 54 -94 0 -9 169 -256 238
-348 190 -253 430 -503 687 -714 11 -9 58 -44 105 -79 47 -34 94 -69 105 -78
94 -74 447 -271 615 -344 41 -18 93 -40 115 -50 143 -64 420 -134 611 -156 27
-3 59 -7 71 -9 186 -31 750 -26 973 10 19 3 52 8 73 10 294 37 579 161 873
381 248 185 430 369 668 674 98 126 250 415 311 590 33 96 95 334 109 420 23
137 43 301 51 415 7 87 7 412 1 465 -3 25 -8 83 -11 130 -3 47 -8 94 -10 105
-2 11 -7 42 -10 70 -26 214 -110 514 -201 710 -7 17 -56 125 -108 240 l-95
210 37 2 c20 2 260 5 532 7 272 2 502 5 510 6 147 15 278 58 381 125 104 67
272 224 380 356 30 36 71 86 92 111 70 85 347 479 347 493 0 9 247 416 311
513 74 111 212 298 270 366 205 239 429 388 650 431 73 14 315 15 399 1 19 -4
64 -11 100 -17 93 -16 187 -43 244 -69 143 -68 290 -281 385 -558 30 -88 84
-292 95 -357 2 -16 8 -50 11 -75 4 -25 9 -54 11 -65 3 -11 7 -45 10 -75 3 -30
7 -61 9 -68 8 -24 19 -257 19 -402 0 -173 -9 -307 -29 -450 -15 -112 -16 -117
-40 -227 -9 -40 -17 -76 -17 -80 -1 -22 -75 -220 -111 -298 -247 -538 -732
-991 -1284 -1198 -115 -43 -304 -94 -387 -103 -22 -3 -66 -9 -96 -13 -59 -10
-307 -7 -380 4 -194 28 -407 106 -546 201 -213 146 -430 409 -557 674 -71 150
-86 208 -102 399 -2 30 -8 58 -13 63 -27 27 -128 -224 -162 -403 -28 -147 -31
-504 -6 -699 14 -102 18 -135 31 -210 23 -128 25 -138 46 -230 48 -205 128
-438 205 -595 47 -96 160 -283 206 -340 162 -200 247 -286 396 -397 148 -110
400 -223 589 -262 110 -23 125 -26 253 -43 75 -10 469 -9 550 1 848 106 1493
664 1870 1616 68 173 166 495 196 645 2 11 6 31 9 45 9 39 33 161 39 200 18
107 46 293 50 336 5 49 13 124 21 199 24 212 24 848 1 995 -4 24 -9 65 -22
190 -7 67 -46 304 -58 355 -2 6 -6 28 -10 50 -32 166 -118 460 -187 635 -18
47 -34 87 -34 90 0 3 -11 27 -23 54 -12 27 -22 50 -22 53 0 11 -142 287 -178
346 -23 37 -42 69 -42 71 0 19 -230 329 -310 419 -86 97 -231 234 -335 317
-99 79 -308 216 -395 260 -63 32 -179 79 -210 85 -8 2 -33 8 -55 13 -111 29
-269 42 -510 42 -303 0 -481 -17 -690 -67 -553 -131 -945 -488 -1393 -1269
-85 -149 -103 -183 -262 -484 -347 -658 -597 -940 -930 -1053 -159 -54 -381
-41 -601 34 -62 21 -305 126 -482 208 -49 23 -92 41 -98 41 -5 0 -9 4 -9 8 0
7 51 40 253 166 129 80 227 170 343 316 209 261 404 616 535 975 27 72 39 113
70 225 56 205 67 442 34 700 -39 294 -184 654 -369 915 -231 325 -511 547
-821 653 -49 17 -101 33 -115 36 -14 3 -59 12 -100 21 -41 9 -93 19 -115 21
-22 3 -51 7 -65 10 -57 9 -415 25 -423 18z"/>
</g>
</svg>
